# xmcd CD database file
#
# Track frame offsets:
#	150
#	14755
#	26718
#	37314
#	47727
#	59425
#	69553
#	82520
#	93983
#	108413
#	123307
#	136435
#	151142
#	161389
#	171682
#	181361
#	193525
#	204924
#	219220
#	231298
#	241965
#	252674
#	263585
#	274152
#	284450
#	293341
#	302492
#	316947
#
# Disc length: 4401 seconds
#
# Revision: 0
# Processed by: cddbd v1.5.2PL0 Copyright (c) Steve Scherf et al.
# Submitted via: CDex 1.95
#
DISCID=8f112f1c
DTITLE=Various Artist - 75 Country Classics Cd 3-3
DYEAR=1900
DGENRE=Country
TTITLE0=Baby I'm Yours - Jody Miller
TTITLE1=The End Of The World - Skeeter Davis
TTITLE2=See The Big Man Cry - Charlie Louvin
TTITLE3=Let Me Be The One - Hank Lockin
TTITLE4=Misty Blue - Wilma Burgess
TTITLE5=If TYeardrops Were Silver - Jean Shepard
TTITLE6=You Can Have Her - Jim Ed Brown
TTITLE7=Talking' To The Blues - Jim Lowe
TTITLE8=Put Your Hand In The Hand - Sandey Posey
TTITLE9=Harper Valley PTA - Jeannie C. Riley
TTITLE10=No Sleep Tonight - Randy Barlow
TTITLE11=Peace In The Valley  - Kenny Price
TTITLE12=Poor Old Heartsick Me - Margie Bowes
TTITLE13=Ruby Don't Take Your Love To Town - Johnny Darrel
TTITLE14=I Can't Believe It's Over - Skeeter Davis
TTITLE15=Take This Job And Shove It - Johnny Paycheck
TTITLE16=The Happiest Girl - Donna Fargo
TTITLE17=Fanny How Time Slips Away - Narvel Felts
TTITLE18=Funny Face - Donny Fargo
TTITLE19=Rise And Shine - Tommy Cash
TTITLE20=Gonna Find Me A Bluebird - Marvin Rainwater
TTITLE21=From Heaven To Heartache - Bobby Lewis
TTITLE22=Kid Stuff - Barbara Fairchild
TTITLE23=A Fallen Star - Jimmy C. Newman
TTITLE24=Lat's Think About Living - Bob Luman
TTITLE25=I Wouldn't Buy A Used Car From Him - Norma Jean
TTITLE26=With Pen In Hand - Johnny Darrel
TTITLE27=Country Music Is Here To Stay - Ferlin Husky
EXTD=
EXTT0=
EXTT1=
EXTT2=
EXTT3=
EXTT4=
EXTT5=
EXTT6=
EXTT7=
EXTT8=
EXTT9=
EXTT10=
EXTT11=
EXTT12=
EXTT13=
EXTT14=
EXTT15=
EXTT16=
EXTT17=
EXTT18=
EXTT19=
EXTT20=
EXTT21=
EXTT22=
EXTT23=
EXTT24=
EXTT25=
EXTT26=
EXTT27=
PLAYORDER=
